<?xml version="1.0" encoding="utf-8" ?>
<svg baseProfile="full" height="1024" version="1.1" width="1536" xmlns="http://www.w3.org/2000/svg" xmlns:ev="http://www.w3.org/2001/xml-events" xmlns:xlink="http://www.w3.org/1999/xlink"><defs /><path d="M 1248,550 L 1247,551 L 1247,552 L 1246,553 L 1246,570 L 1245,571 L 1245,585 L 1244,586 L 1244,600 L 1243,601 L 1243,613 L 1242,614 L 1242,630 L 1241,631 L 1241,646 L 1240,647 L 1240,673 L 1239,674 L 1239,676 L 1240,677 L 1240,694 L 1242,696 L 1244,696 L 1246,694 L 1246,649 L 1247,648 L 1247,631 L 1248,630 L 1248,619 L 1249,618 L 1248,617 L 1249,616 L 1249,600 L 1250,599 L 1250,583 L 1251,582 L 1251,566 L 1252,565 L 1252,555 L 1253,554 L 1253,552 L 1251,550" fill="none" stroke="black" stroke-width="2" /><path d="M 1165,485 L 1163,487 L 1163,495 L 1164,496 L 1164,503 L 1165,504 L 1165,509 L 1166,510 L 1166,515 L 1167,516 L 1167,519 L 1168,520 L 1168,524 L 1169,525 L 1169,528 L 1170,529 L 1170,531 L 1171,532 L 1171,535 L 1172,536 L 1172,538 L 1173,539 L 1173,540 L 1174,541 L 1174,543 L 1175,544 L 1175,545 L 1176,546 L 1179,546 L 1181,544 L 1181,542 L 1180,541 L 1180,539 L 1179,538 L 1179,537 L 1178,536 L 1178,534 L 1177,533 L 1177,531 L 1176,530 L 1176,528 L 1175,527 L 1175,526 L 1174,525 L 1174,522 L 1173,521 L 1173,517 L 1172,516 L 1172,511 L 1171,510 L 1171,504 L 1170,503 L 1170,490 L 1169,489 L 1169,487 L 1167,485" fill="none" stroke="black" stroke-width="2" /><path d="M 1311,368 L 1309,370 L 1309,372 L 1312,375 L 1314,375 L 1315,376 L 1316,376 L 1320,380 L 1320,381 L 1322,383 L 1322,384 L 1323,385 L 1323,387 L 1324,388 L 1324,391 L 1325,392 L 1325,394 L 1326,395 L 1326,396 L 1327,397 L 1327,398 L 1328,399 L 1328,400 L 1333,405 L 1335,405 L 1336,406 L 1337,406 L 1338,407 L 1339,407 L 1340,408 L 1341,408 L 1342,409 L 1343,409 L 1344,410 L 1346,410 L 1348,412 L 1349,412 L 1354,417 L 1354,418 L 1355,419 L 1355,420 L 1356,421 L 1356,422 L 1357,423 L 1357,424 L 1358,425 L 1358,427 L 1359,428 L 1359,429 L 1360,430 L 1360,431 L 1361,432 L 1361,433 L 1362,434 L 1362,435 L 1363,436 L 1363,437 L 1365,439 L 1365,440 L 1372,447 L 1373,447 L 1374,448 L 1376,448 L 1377,449 L 1380,449 L 1381,450 L 1382,450 L 1383,451 L 1384,451 L 1385,452 L 1386,452 L 1388,454 L 1389,454 L 1396,461 L 1396,462 L 1398,464 L 1398,465 L 1400,467 L 1400,468 L 1401,469 L 1401,470 L 1402,471 L 1402,473 L 1404,475 L 1404,476 L 1407,479 L 1407,480 L 1408,480 L 1411,483 L 1412,483 L 1413,484 L 1414,484 L 1415,485 L 1417,485 L 1418,486 L 1420,486 L 1421,487 L 1426,487 L 1427,488 L 1432,488 L 1433,489 L 1436,489 L 1437,490 L 1438,490 L 1439,491 L 1440,491 L 1441,492 L 1442,492 L 1444,494 L 1445,494 L 1459,508 L 1459,509 L 1460,509 L 1461,510 L 1461,511 L 1462,511 L 1466,515 L 1467,515 L 1468,516 L 1469,516 L 1470,517 L 1471,517 L 1472,518 L 1473,518 L 1474,519 L 1476,519 L 1477,520 L 1494,520 L 1495,521 L 1498,521 L 1499,522 L 1500,522 L 1501,523 L 1502,523 L 1503,524 L 1504,524 L 1506,526 L 1507,526 L 1509,528 L 1510,528 L 1512,530 L 1513,530 L 1517,534 L 1518,534 L 1520,536 L 1521,536 L 1523,538 L 1524,538 L 1526,540 L 1527,540 L 1528,541 L 1529,541 L 1531,543 L 1532,543 L 1533,544 L 1534,544 L 1535,545 L 1535,537 L 1534,537 L 1533,536 L 1532,536 L 1531,535 L 1530,535 L 1529,534 L 1528,534 L 1526,532 L 1525,532 L 1523,530 L 1522,530 L 1519,527 L 1518,527 L 1514,523 L 1513,523 L 1511,521 L 1510,521 L 1507,518 L 1506,518 L 1504,516 L 1503,516 L 1502,515 L 1500,515 L 1499,514 L 1498,514 L 1497,513 L 1478,513 L 1477,512 L 1475,512 L 1474,511 L 1473,511 L 1472,510 L 1471,510 L 1467,506 L 1466,506 L 1464,504 L 1464,503 L 1452,491 L 1451,491 L 1447,487 L 1446,487 L 1445,486 L 1444,486 L 1442,484 L 1440,484 L 1439,483 L 1437,483 L 1436,482 L 1432,482 L 1431,481 L 1426,481 L 1425,480 L 1421,480 L 1420,479 L 1418,479 L 1417,478 L 1416,478 L 1414,476 L 1413,476 L 1410,473 L 1410,472 L 1408,470 L 1408,469 L 1407,468 L 1407,467 L 1406,466 L 1406,465 L 1405,464 L 1405,463 L 1404,462 L 1404,461 L 1402,459 L 1402,458 L 1398,454 L 1398,453 L 1393,448 L 1392,448 L 1390,446 L 1389,446 L 1388,445 L 1387,445 L 1386,444 L 1384,444 L 1383,443 L 1380,443 L 1379,442 L 1378,442 L 1377,441 L 1376,441 L 1370,435 L 1370,434 L 1368,432 L 1368,431 L 1367,430 L 1367,429 L 1366,428 L 1366,427 L 1365,426 L 1365,424 L 1364,423 L 1364,422 L 1363,421 L 1363,419 L 1362,418 L 1362,417 L 1361,416 L 1361,415 L 1360,414 L 1360,413 L 1353,406 L 1352,406 L 1351,405 L 1350,405 L 1349,404 L 1348,404 L 1346,402 L 1345,402 L 1344,401 L 1342,401 L 1341,400 L 1339,400 L 1337,398 L 1336,398 L 1333,395 L 1333,394 L 1331,392 L 1331,391 L 1330,390 L 1330,388 L 1329,387 L 1329,385 L 1328,384 L 1328,381 L 1327,380 L 1327,379 L 1326,378 L 1326,377 L 1324,375 L 1324,374 L 1322,372 L 1321,372 L 1318,369 L 1317,369 L 1316,368" fill="none" stroke="black" stroke-width="2" /><path d="M 343,326 L 342,327 L 340,327 L 339,328 L 338,328 L 337,329 L 336,329 L 335,330 L 334,330 L 333,331 L 332,331 L 330,333 L 329,333 L 328,334 L 327,334 L 326,335 L 325,335 L 324,336 L 323,336 L 318,341 L 318,342 L 317,343 L 317,344 L 316,345 L 316,348 L 315,349 L 315,358 L 314,359 L 314,369 L 313,370 L 313,376 L 312,377 L 312,383 L 311,384 L 311,398 L 310,399 L 310,410 L 309,411 L 309,445 L 310,446 L 310,451 L 309,452 L 309,457 L 308,458 L 308,459 L 302,465 L 301,465 L 299,467 L 298,467 L 297,468 L 296,468 L 294,470 L 293,470 L 292,471 L 291,471 L 289,473 L 288,473 L 287,474 L 287,475 L 275,487 L 274,487 L 270,491 L 269,491 L 266,494 L 265,494 L 262,497 L 261,497 L 259,499 L 258,499 L 256,501 L 255,501 L 254,502 L 253,502 L 251,504 L 250,504 L 249,505 L 248,505 L 246,507 L 245,507 L 244,508 L 243,508 L 242,509 L 241,509 L 240,510 L 239,510 L 237,512 L 236,512 L 235,513 L 234,513 L 233,514 L 232,514 L 231,515 L 230,515 L 229,516 L 228,516 L 227,517 L 226,517 L 225,518 L 224,518 L 223,519 L 222,519 L 221,520 L 220,520 L 219,521 L 218,521 L 217,522 L 216,522 L 215,523 L 214,523 L 213,524 L 212,524 L 211,525 L 210,525 L 209,526 L 208,526 L 206,528 L 205,528 L 204,529 L 203,529 L 202,530 L 201,530 L 199,532 L 198,532 L 197,533 L 196,533 L 194,535 L 194,536 L 193,537 L 193,539 L 190,542 L 188,542 L 187,543 L 185,543 L 184,544 L 178,544 L 177,545 L 173,545 L 172,546 L 171,546 L 170,547 L 168,547 L 167,548 L 166,548 L 164,550 L 163,550 L 157,556 L 156,556 L 154,558 L 153,558 L 152,559 L 149,559 L 148,560 L 140,560 L 139,559 L 132,559 L 131,558 L 129,558 L 128,559 L 124,559 L 123,560 L 122,560 L 121,561 L 120,561 L 118,563 L 117,563 L 114,566 L 113,566 L 112,567 L 110,567 L 109,568 L 105,568 L 104,567 L 103,567 L 96,560 L 95,560 L 94,559 L 93,559 L 92,558 L 88,558 L 87,559 L 85,559 L 84,560 L 83,560 L 79,564 L 78,564 L 76,566 L 75,566 L 74,567 L 72,567 L 71,568 L 66,568 L 65,567 L 64,567 L 55,558 L 55,557 L 54,557 L 51,554 L 50,554 L 49,553 L 48,553 L 47,552 L 45,552 L 44,551 L 39,551 L 38,550 L 36,550 L 35,551 L 29,551 L 28,552 L 24,552 L 21,555 L 21,557 L 23,559 L 26,559 L 27,558 L 30,558 L 31,557 L 41,557 L 42,558 L 44,558 L 45,559 L 46,559 L 50,563 L 51,563 L 52,564 L 52,565 L 57,570 L 57,571 L 59,573 L 60,573 L 61,574 L 62,574 L 63,575 L 73,575 L 74,574 L 75,574 L 76,573 L 77,573 L 78,572 L 79,572 L 81,570 L 82,570 L 83,569 L 84,569 L 86,567 L 87,567 L 88,566 L 89,566 L 90,567 L 92,567 L 98,573 L 99,573 L 100,574 L 101,574 L 102,575 L 112,575 L 113,574 L 114,574 L 115,573 L 116,573 L 118,571 L 119,571 L 121,569 L 122,569 L 124,567 L 125,567 L 126,566 L 129,566 L 130,565 L 131,565 L 132,566 L 139,566 L 140,567 L 147,567 L 148,566 L 149,567 L 150,566 L 152,566 L 153,565 L 155,565 L 156,564 L 157,564 L 158,563 L 159,563 L 162,560 L 163,560 L 167,556 L 168,556 L 170,554 L 171,554 L 173,552 L 174,552 L 175,551 L 178,551 L 179,550 L 187,550 L 188,549 L 190,549 L 191,548 L 192,548 L 193,547 L 194,547 L 195,546 L 196,546 L 197,545 L 199,545 L 200,544 L 204,544 L 205,543 L 211,543 L 212,542 L 222,542 L 223,541 L 251,541 L 252,540 L 279,540 L 280,539 L 281,539 L 282,540 L 320,540 L 321,541 L 390,541 L 391,540 L 392,541 L 393,541 L 394,540 L 431,540 L 432,541 L 442,541 L 443,542 L 450,542 L 451,543 L 456,543 L 457,544 L 458,544 L 459,545 L 454,550 L 453,550 L 452,551 L 448,551 L 447,552 L 437,552 L 436,553 L 432,553 L 430,555 L 430,557 L 432,559 L 443,559 L 444,558 L 449,558 L 450,557 L 453,557 L 454,556 L 456,556 L 457,555 L 458,555 L 460,553 L 461,553 L 463,551 L 463,550 L 465,548 L 465,547 L 466,546 L 466,544 L 465,543 L 465,542 L 463,540 L 462,540 L 461,539 L 460,539 L 459,538 L 458,538 L 457,537 L 454,537 L 453,536 L 448,536 L 447,535 L 432,535 L 431,534 L 374,534 L 373,535 L 372,535 L 371,534 L 370,535 L 364,535 L 363,534 L 362,535 L 359,535 L 358,534 L 357,535 L 346,535 L 345,534 L 342,534 L 341,535 L 340,534 L 243,534 L 242,535 L 222,535 L 221,536 L 207,536 L 206,535 L 207,534 L 208,534 L 209,533 L 210,533 L 211,532 L 212,532 L 214,530 L 215,530 L 216,529 L 217,529 L 218,528 L 219,528 L 221,526 L 223,526 L 224,525 L 225,525 L 226,524 L 227,524 L 228,523 L 229,523 L 230,522 L 231,522 L 232,521 L 233,521 L 234,520 L 235,520 L 236,519 L 237,519 L 238,518 L 239,518 L 241,516 L 242,516 L 243,515 L 244,515 L 245,514 L 246,514 L 248,512 L 249,512 L 250,511 L 251,511 L 253,509 L 254,509 L 255,508 L 256,508 L 257,507 L 258,507 L 260,505 L 261,505 L 262,504 L 263,504 L 265,502 L 266,502 L 268,500 L 269,500 L 271,498 L 272,498 L 275,495 L 276,495 L 281,490 L 282,490 L 294,478 L 295,478 L 297,476 L 298,476 L 300,474 L 301,474 L 302,473 L 303,473 L 305,471 L 306,471 L 314,463 L 314,462 L 315,461 L 315,460 L 316,459 L 316,457 L 317,456 L 317,441 L 316,440 L 316,416 L 317,415 L 317,402 L 318,401 L 318,385 L 319,384 L 319,380 L 320,379 L 320,375 L 321,374 L 321,369 L 322,368 L 322,354 L 323,353 L 323,349 L 324,348 L 324,347 L 325,346 L 325,345 L 328,342 L 329,342 L 331,340 L 332,340 L 334,338 L 335,338 L 336,337 L 338,337 L 339,336 L 340,336 L 341,335 L 342,335 L 343,334 L 347,334 L 349,336 L 350,336 L 357,343 L 357,345 L 358,346 L 358,373 L 359,374 L 359,419 L 360,420 L 360,437 L 361,438 L 360,439 L 361,440 L 361,450 L 363,452 L 366,452 L 367,451 L 367,448 L 368,447 L 368,442 L 367,441 L 367,429 L 366,428 L 366,407 L 365,406 L 365,370 L 364,369 L 364,362 L 365,361 L 365,360 L 364,359 L 364,344 L 365,343 L 373,343 L 374,342 L 390,342 L 391,343 L 399,343 L 400,344 L 404,344 L 405,345 L 408,345 L 409,346 L 413,346 L 414,347 L 417,347 L 418,348 L 422,348 L 423,349 L 425,349 L 426,350 L 427,350 L 428,351 L 429,351 L 430,352 L 430,353 L 431,354 L 431,357 L 432,358 L 432,373 L 431,374 L 431,381 L 432,382 L 431,383 L 432,384 L 432,386 L 431,387 L 431,404 L 432,405 L 432,411 L 433,412 L 433,413 L 434,414 L 434,415 L 438,419 L 447,419 L 449,421 L 449,422 L 450,423 L 450,424 L 451,425 L 451,427 L 452,428 L 452,430 L 453,431 L 453,433 L 454,434 L 454,436 L 457,439 L 457,440 L 458,441 L 458,443 L 459,444 L 459,448 L 460,449 L 460,452 L 461,453 L 461,454 L 462,455 L 462,457 L 464,459 L 464,460 L 465,461 L 465,464 L 463,466 L 459,466 L 458,467 L 454,467 L 453,466 L 440,466 L 439,465 L 416,465 L 415,464 L 394,464 L 393,463 L 392,463 L 391,462 L 390,462 L 389,461 L 389,460 L 387,458 L 387,457 L 386,456 L 386,453 L 385,452 L 385,448 L 384,447 L 384,445 L 383,444 L 383,442 L 382,441 L 382,438 L 381,437 L 381,436 L 380,436 L 379,435 L 376,435 L 374,437 L 374,439 L 373,440 L 373,449 L 372,450 L 372,452 L 371,453 L 371,454 L 366,459 L 365,459 L 363,461 L 363,465 L 364,465 L 365,466 L 368,466 L 369,465 L 370,465 L 372,463 L 373,463 L 375,461 L 375,460 L 376,459 L 376,458 L 377,457 L 377,456 L 378,455 L 379,455 L 380,456 L 380,459 L 381,460 L 381,461 L 382,462 L 382,463 L 384,465 L 384,466 L 386,468 L 387,468 L 388,469 L 390,469 L 391,470 L 396,470 L 397,471 L 417,471 L 418,472 L 419,471 L 422,471 L 423,472 L 424,471 L 426,471 L 427,472 L 443,472 L 444,473 L 465,473 L 466,472 L 470,472 L 473,469 L 473,463 L 472,462 L 472,460 L 471,459 L 471,457 L 470,456 L 470,455 L 469,454 L 469,453 L 468,452 L 468,451 L 467,450 L 467,448 L 466,447 L 466,445 L 465,444 L 465,440 L 464,439 L 464,428 L 465,427 L 465,422 L 466,421 L 466,412 L 467,411 L 467,403 L 466,402 L 466,401 L 467,400 L 466,399 L 466,397 L 467,396 L 467,395 L 466,394 L 466,381 L 467,380 L 467,372 L 468,371 L 469,371 L 472,374 L 472,375 L 473,376 L 473,379 L 474,380 L 474,383 L 473,384 L 473,392 L 472,393 L 472,415 L 473,416 L 473,426 L 474,427 L 474,437 L 475,438 L 475,448 L 476,449 L 476,455 L 477,456 L 477,460 L 478,461 L 478,465 L 479,466 L 479,467 L 480,468 L 480,470 L 481,471 L 481,472 L 482,473 L 482,474 L 484,476 L 484,477 L 489,482 L 490,482 L 492,484 L 493,484 L 494,485 L 496,485 L 497,486 L 498,486 L 499,487 L 500,487 L 501,488 L 502,488 L 503,489 L 504,489 L 505,490 L 506,490 L 513,497 L 513,498 L 520,505 L 521,505 L 522,506 L 524,506 L 525,507 L 528,507 L 536,515 L 537,515 L 541,519 L 542,519 L 544,521 L 545,521 L 547,523 L 548,523 L 549,524 L 550,524 L 551,525 L 553,525 L 554,526 L 558,526 L 559,527 L 565,527 L 566,528 L 568,528 L 569,529 L 571,529 L 572,530 L 573,530 L 575,532 L 576,532 L 578,534 L 579,534 L 584,539 L 585,539 L 587,541 L 588,541 L 589,542 L 590,542 L 591,543 L 593,543 L 594,544 L 621,544 L 622,545 L 624,545 L 625,546 L 627,546 L 628,547 L 629,547 L 630,548 L 631,548 L 632,549 L 633,549 L 635,551 L 636,551 L 637,552 L 638,552 L 639,553 L 640,553 L 641,554 L 642,554 L 643,555 L 646,555 L 647,556 L 667,556 L 668,555 L 682,555 L 683,556 L 687,556 L 688,557 L 691,557 L 692,558 L 694,558 L 695,559 L 697,559 L 698,560 L 700,560 L 701,561 L 704,561 L 705,562 L 723,562 L 724,561 L 731,561 L 732,560 L 747,560 L 748,561 L 752,561 L 753,562 L 757,562 L 758,563 L 773,563 L 774,562 L 776,562 L 777,561 L 778,561 L 779,560 L 780,560 L 781,559 L 782,559 L 783,558 L 784,558 L 786,556 L 787,556 L 789,554 L 790,554 L 792,552 L 793,552 L 794,551 L 795,551 L 796,550 L 797,550 L 798,549 L 800,549 L 801,548 L 803,548 L 804,547 L 811,547 L 812,546 L 813,547 L 814,546 L 815,546 L 816,547 L 822,547 L 823,548 L 830,548 L 831,549 L 842,549 L 843,548 L 846,548 L 847,547 L 849,547 L 850,546 L 851,546 L 852,545 L 853,545 L 855,543 L 856,543 L 858,541 L 859,541 L 862,538 L 863,538 L 864,537 L 865,537 L 866,536 L 867,536 L 868,535 L 869,535 L 870,534 L 872,534 L 873,533 L 877,533 L 878,532 L 879,532 L 880,533 L 893,533 L 894,532 L 899,532 L 900,531 L 902,531 L 903,530 L 905,530 L 906,529 L 907,529 L 908,528 L 909,528 L 910,527 L 912,527 L 913,526 L 915,526 L 916,525 L 919,525 L 920,524 L 923,524 L 924,523 L 926,523 L 927,522 L 929,522 L 930,521 L 931,521 L 932,520 L 933,520 L 934,519 L 935,519 L 936,518 L 937,518 L 939,516 L 940,516 L 941,515 L 942,515 L 944,513 L 945,513 L 969,489 L 969,488 L 971,486 L 971,485 L 973,483 L 973,482 L 976,479 L 976,478 L 985,469 L 986,469 L 987,468 L 988,468 L 989,467 L 990,467 L 991,466 L 992,466 L 993,465 L 994,465 L 995,464 L 996,464 L 997,463 L 998,463 L 999,462 L 1000,462 L 1001,461 L 1002,461 L 1005,458 L 1006,458 L 1007,457 L 1007,456 L 1012,451 L 1012,450 L 1015,447 L 1015,446 L 1017,444 L 1017,443 L 1020,440 L 1020,439 L 1022,437 L 1022,436 L 1024,434 L 1024,433 L 1030,427 L 1031,427 L 1034,424 L 1035,424 L 1036,423 L 1037,423 L 1038,422 L 1039,422 L 1041,420 L 1042,420 L 1043,419 L 1044,419 L 1046,417 L 1047,417 L 1050,414 L 1051,414 L 1052,413 L 1053,413 L 1054,412 L 1056,412 L 1057,411 L 1059,411 L 1060,410 L 1063,410 L 1064,409 L 1068,409 L 1069,408 L 1071,408 L 1072,407 L 1073,407 L 1074,406 L 1075,406 L 1076,405 L 1077,405 L 1087,395 L 1087,394 L 1092,389 L 1092,388 L 1094,386 L 1095,386 L 1097,384 L 1098,384 L 1099,383 L 1100,383 L 1101,382 L 1102,382 L 1103,381 L 1106,381 L 1107,380 L 1117,380 L 1118,379 L 1119,379 L 1120,378 L 1121,378 L 1122,377 L 1123,377 L 1124,376 L 1125,376 L 1126,375 L 1127,375 L 1131,371 L 1131,370 L 1134,367 L 1134,366 L 1139,361 L 1140,361 L 1143,358 L 1145,358 L 1146,357 L 1152,357 L 1153,358 L 1157,358 L 1158,357 L 1161,357 L 1162,356 L 1163,356 L 1164,355 L 1165,355 L 1166,354 L 1167,354 L 1169,352 L 1170,352 L 1181,341 L 1182,341 L 1185,338 L 1186,338 L 1187,337 L 1189,337 L 1191,335 L 1191,333 L 1190,332 L 1190,331 L 1189,330 L 1186,330 L 1185,331 L 1184,331 L 1183,332 L 1182,332 L 1181,333 L 1180,333 L 1177,336 L 1176,336 L 1167,345 L 1166,345 L 1163,348 L 1162,348 L 1161,349 L 1160,349 L 1159,350 L 1143,350 L 1142,351 L 1140,351 L 1139,352 L 1138,352 L 1135,355 L 1134,355 L 1131,358 L 1131,359 L 1128,362 L 1128,363 L 1124,367 L 1124,368 L 1123,369 L 1122,369 L 1120,371 L 1119,371 L 1118,372 L 1117,372 L 1116,373 L 1114,373 L 1113,374 L 1102,374 L 1101,375 L 1098,375 L 1097,376 L 1096,376 L 1095,377 L 1094,377 L 1093,378 L 1092,378 L 1084,386 L 1084,387 L 1079,392 L 1079,393 L 1074,398 L 1073,398 L 1071,400 L 1070,400 L 1069,401 L 1067,401 L 1066,402 L 1063,402 L 1062,403 L 1057,403 L 1056,404 L 1054,404 L 1053,405 L 1052,405 L 1051,406 L 1050,406 L 1049,407 L 1048,407 L 1046,409 L 1045,409 L 1043,411 L 1042,411 L 1041,412 L 1040,412 L 1038,414 L 1037,414 L 1036,415 L 1035,415 L 1034,416 L 1033,416 L 1032,417 L 1031,417 L 1028,420 L 1027,420 L 1020,427 L 1020,428 L 1016,432 L 1016,433 L 1014,435 L 1014,436 L 1012,438 L 1012,439 L 1010,441 L 1010,442 L 1008,444 L 1008,445 L 1004,449 L 1004,450 L 1003,451 L 1002,451 L 998,455 L 997,455 L 996,456 L 995,456 L 994,457 L 993,457 L 992,458 L 991,458 L 990,459 L 989,459 L 988,460 L 987,460 L 986,461 L 985,461 L 984,462 L 983,462 L 982,463 L 981,463 L 973,471 L 973,472 L 969,476 L 969,477 L 967,479 L 967,480 L 965,482 L 858,482 L 857,481 L 852,481 L 851,480 L 849,480 L 848,479 L 847,479 L 846,478 L 845,478 L 842,475 L 842,471 L 841,470 L 841,456 L 842,455 L 842,453 L 841,452 L 841,451 L 842,450 L 841,449 L 841,444 L 842,443 L 842,438 L 841,437 L 841,429 L 840,428 L 840,427 L 839,426 L 839,425 L 837,423 L 836,423 L 830,417 L 830,416 L 829,415 L 829,414 L 827,412 L 827,411 L 826,410 L 825,410 L 824,409 L 822,409 L 821,408 L 808,408 L 807,409 L 802,409 L 801,410 L 797,410 L 796,411 L 793,411 L 792,412 L 790,412 L 789,413 L 788,413 L 787,414 L 786,414 L 782,418 L 782,419 L 781,420 L 781,422 L 780,423 L 780,432 L 779,433 L 779,440 L 778,441 L 778,449 L 777,450 L 777,455 L 776,456 L 775,455 L 775,447 L 774,446 L 774,440 L 773,439 L 773,437 L 772,436 L 771,436 L 770,435 L 768,435 L 767,436 L 766,436 L 766,437 L 765,438 L 765,440 L 764,441 L 764,461 L 763,462 L 763,467 L 762,468 L 762,471 L 761,472 L 761,474 L 759,476 L 759,477 L 758,478 L 758,479 L 754,483 L 753,483 L 751,485 L 750,485 L 748,487 L 747,487 L 742,492 L 742,493 L 739,496 L 736,496 L 735,497 L 701,497 L 700,498 L 699,497 L 698,498 L 681,498 L 680,499 L 659,499 L 658,498 L 645,498 L 644,499 L 634,499 L 633,500 L 616,500 L 615,499 L 609,499 L 608,498 L 597,498 L 596,497 L 565,497 L 564,498 L 555,498 L 554,499 L 544,499 L 543,500 L 538,500 L 537,501 L 531,501 L 530,500 L 527,500 L 526,499 L 525,499 L 524,498 L 523,498 L 519,494 L 519,493 L 514,488 L 514,487 L 512,485 L 511,485 L 509,483 L 508,483 L 507,482 L 506,482 L 505,481 L 504,481 L 503,480 L 502,480 L 501,479 L 500,479 L 499,478 L 498,478 L 497,477 L 496,477 L 494,475 L 493,475 L 488,470 L 488,469 L 487,468 L 487,467 L 486,466 L 486,465 L 485,464 L 485,462 L 484,461 L 484,457 L 483,456 L 483,452 L 482,451 L 482,444 L 481,443 L 481,434 L 480,433 L 480,421 L 479,420 L 479,404 L 478,403 L 479,402 L 479,387 L 480,386 L 480,376 L 479,375 L 479,373 L 478,372 L 478,371 L 477,370 L 477,369 L 476,369 L 475,368 L 475,367 L 474,367 L 472,365 L 471,365 L 470,364 L 469,364 L 468,363 L 464,363 L 463,364 L 462,364 L 461,365 L 461,374 L 460,375 L 460,414 L 459,415 L 459,422 L 458,423 L 457,423 L 456,422 L 456,420 L 455,419 L 455,418 L 449,412 L 441,412 L 439,410 L 439,406 L 438,405 L 438,375 L 439,374 L 439,353 L 438,352 L 438,350 L 436,348 L 436,347 L 434,345 L 433,345 L 432,344 L 431,344 L 430,343 L 428,343 L 427,342 L 423,342 L 422,341 L 419,341 L 418,340 L 415,340 L 414,339 L 411,339 L 410,338 L 408,338 L 407,337 L 403,337 L 402,336 L 397,336 L 396,335 L 363,335 L 362,334 L 361,334 L 360,333 L 359,333 L 356,330 L 355,330 L 353,328 L 352,328 L 351,327 L 350,327 L 349,326" fill="none" stroke="black" stroke-width="2" /><path d="M 1283,324 L 1282,325 L 1279,325 L 1278,326 L 1277,326 L 1275,328 L 1274,328 L 1274,329 L 1272,331 L 1272,332 L 1271,333 L 1271,334 L 1270,335 L 1270,337 L 1269,338 L 1269,341 L 1268,342 L 1268,347 L 1267,348 L 1267,352 L 1266,353 L 1266,367 L 1265,368 L 1265,407 L 1264,408 L 1264,423 L 1263,424 L 1263,432 L 1262,433 L 1262,438 L 1261,439 L 1261,444 L 1260,445 L 1260,448 L 1259,449 L 1259,452 L 1258,453 L 1258,454 L 1257,455 L 1257,457 L 1256,458 L 1256,460 L 1255,461 L 1255,463 L 1254,464 L 1254,465 L 1253,466 L 1253,467 L 1252,468 L 1252,470 L 1251,471 L 1251,472 L 1250,473 L 1250,474 L 1249,475 L 1249,476 L 1248,477 L 1248,478 L 1247,479 L 1247,480 L 1246,481 L 1246,482 L 1245,483 L 1245,484 L 1244,485 L 1244,486 L 1243,487 L 1243,488 L 1241,490 L 1241,491 L 1240,492 L 1240,494 L 1239,495 L 1239,496 L 1238,497 L 1238,500 L 1237,501 L 1237,504 L 1236,505 L 1236,513 L 1237,514 L 1237,517 L 1238,518 L 1238,520 L 1240,522 L 1240,523 L 1243,526 L 1244,526 L 1245,527 L 1246,527 L 1247,528 L 1256,528 L 1257,527 L 1259,527 L 1260,526 L 1261,526 L 1262,525 L 1263,525 L 1264,524 L 1265,524 L 1267,522 L 1268,522 L 1274,516 L 1274,515 L 1276,513 L 1276,512 L 1277,511 L 1277,510 L 1278,509 L 1278,508 L 1280,506 L 1280,505 L 1281,504 L 1281,502 L 1282,501 L 1282,500 L 1283,499 L 1283,498 L 1284,497 L 1284,496 L 1285,495 L 1285,493 L 1286,492 L 1286,490 L 1287,489 L 1287,487 L 1288,486 L 1288,484 L 1289,483 L 1289,481 L 1290,480 L 1290,477 L 1291,476 L 1291,474 L 1292,473 L 1292,470 L 1293,469 L 1293,466 L 1294,465 L 1294,462 L 1295,461 L 1295,458 L 1296,457 L 1296,452 L 1297,451 L 1297,447 L 1298,446 L 1298,441 L 1299,440 L 1299,433 L 1300,432 L 1300,424 L 1301,423 L 1301,412 L 1302,411 L 1302,399 L 1303,398 L 1303,392 L 1302,391 L 1302,364 L 1301,363 L 1301,355 L 1300,354 L 1300,349 L 1299,348 L 1299,345 L 1298,344 L 1298,341 L 1297,340 L 1297,338 L 1296,337 L 1296,336 L 1295,335 L 1295,334 L 1294,333 L 1294,332 L 1292,330 L 1292,329 L 1289,326 L 1288,326 L 1287,325 L 1285,325 L 1284,324" fill="none" stroke="black" stroke-width="2" /><path d="M 1225,289 L 1224,290 L 1224,291 L 1223,292 L 1223,294 L 1222,295 L 1222,303 L 1221,304 L 1221,351 L 1222,352 L 1221,353 L 1221,355 L 1222,356 L 1222,440 L 1223,441 L 1222,442 L 1223,443 L 1222,444 L 1222,477 L 1221,478 L 1221,546 L 1220,547 L 1220,564 L 1219,565 L 1219,583 L 1218,584 L 1218,599 L 1217,600 L 1217,612 L 1216,613 L 1216,618 L 1215,619 L 1215,623 L 1214,624 L 1214,628 L 1213,629 L 1213,633 L 1212,634 L 1212,637 L 1211,638 L 1211,644 L 1212,645 L 1213,645 L 1214,646 L 1215,645 L 1216,645 L 1216,644 L 1217,643 L 1217,639 L 1218,638 L 1218,634 L 1219,633 L 1219,629 L 1220,628 L 1220,624 L 1221,623 L 1221,619 L 1222,618 L 1222,610 L 1223,609 L 1223,598 L 1224,597 L 1224,587 L 1225,586 L 1225,562 L 1226,561 L 1226,541 L 1227,540 L 1227,523 L 1226,522 L 1226,492 L 1227,491 L 1227,464 L 1228,463 L 1228,402 L 1227,401 L 1228,400 L 1228,398 L 1227,397 L 1227,348 L 1226,347 L 1226,342 L 1227,341 L 1227,337 L 1226,336 L 1226,333 L 1227,332 L 1226,331 L 1226,313 L 1227,312 L 1227,304 L 1228,303 L 1228,299 L 1229,298 L 1229,295 L 1230,294 L 1230,291 L 1228,289" fill="none" stroke="black" stroke-width="2" /><path d="M 1223,228 L 1222,229 L 1219,229 L 1218,230 L 1217,230 L 1215,232 L 1214,232 L 1213,233 L 1213,234 L 1211,236 L 1211,238 L 1210,239 L 1210,241 L 1209,242 L 1209,244 L 1208,245 L 1208,247 L 1207,248 L 1207,253 L 1206,254 L 1206,258 L 1205,259 L 1205,263 L 1204,264 L 1204,269 L 1203,270 L 1203,280 L 1202,281 L 1202,299 L 1201,300 L 1201,303 L 1202,304 L 1201,305 L 1201,364 L 1200,365 L 1200,409 L 1199,410 L 1200,411 L 1199,412 L 1200,413 L 1200,416 L 1199,417 L 1199,461 L 1198,462 L 1198,480 L 1199,481 L 1199,515 L 1198,516 L 1197,516 L 1195,514 L 1195,513 L 1193,511 L 1193,510 L 1192,509 L 1192,508 L 1191,507 L 1191,505 L 1190,504 L 1190,501 L 1189,500 L 1189,495 L 1188,494 L 1188,488 L 1187,487 L 1187,483 L 1186,482 L 1186,478 L 1185,477 L 1185,475 L 1184,474 L 1184,471 L 1183,470 L 1183,469 L 1182,468 L 1182,466 L 1181,465 L 1181,464 L 1180,463 L 1180,462 L 1179,461 L 1179,460 L 1177,458 L 1177,457 L 1175,455 L 1175,454 L 1174,453 L 1173,453 L 1170,450 L 1169,450 L 1168,449 L 1166,449 L 1165,448 L 1158,448 L 1157,449 L 1156,449 L 1155,450 L 1154,450 L 1153,451 L 1152,451 L 1150,453 L 1150,454 L 1148,456 L 1148,457 L 1147,458 L 1147,459 L 1146,460 L 1146,462 L 1145,463 L 1145,465 L 1144,466 L 1144,469 L 1143,470 L 1143,478 L 1142,479 L 1142,496 L 1143,497 L 1143,504 L 1144,505 L 1144,511 L 1145,512 L 1145,517 L 1146,518 L 1146,521 L 1147,522 L 1147,525 L 1148,526 L 1148,529 L 1149,530 L 1149,532 L 1150,533 L 1150,535 L 1151,536 L 1151,539 L 1152,540 L 1152,541 L 1153,542 L 1153,544 L 1154,545 L 1154,547 L 1155,548 L 1155,550 L 1156,551 L 1156,552 L 1157,553 L 1157,555 L 1158,556 L 1158,557 L 1160,559 L 1160,560 L 1161,561 L 1161,562 L 1162,563 L 1162,564 L 1164,566 L 1164,567 L 1167,570 L 1167,571 L 1168,572 L 1169,572 L 1171,574 L 1172,574 L 1173,575 L 1174,575 L 1175,576 L 1178,576 L 1179,577 L 1183,577 L 1184,576 L 1186,576 L 1187,575 L 1189,575 L 1191,573 L 1192,573 L 1196,569 L 1197,570 L 1197,600 L 1196,601 L 1196,618 L 1195,619 L 1195,633 L 1194,634 L 1194,646 L 1193,647 L 1193,654 L 1192,655 L 1192,660 L 1191,661 L 1191,666 L 1190,667 L 1190,672 L 1189,673 L 1189,680 L 1190,681 L 1194,681 L 1195,680 L 1195,675 L 1196,674 L 1196,668 L 1197,667 L 1197,662 L 1198,661 L 1198,654 L 1199,653 L 1199,644 L 1200,643 L 1200,633 L 1201,632 L 1201,617 L 1202,616 L 1202,593 L 1203,592 L 1203,553 L 1204,552 L 1204,548 L 1203,547 L 1203,546 L 1202,546 L 1201,545 L 1199,545 L 1197,547 L 1197,549 L 1196,550 L 1196,552 L 1195,553 L 1195,555 L 1194,556 L 1194,557 L 1193,558 L 1193,560 L 1192,561 L 1192,563 L 1191,564 L 1191,565 L 1187,569 L 1186,569 L 1185,570 L 1176,570 L 1175,569 L 1174,569 L 1170,565 L 1170,564 L 1168,562 L 1168,561 L 1166,559 L 1166,558 L 1165,557 L 1165,556 L 1164,555 L 1164,554 L 1163,553 L 1163,552 L 1162,551 L 1162,550 L 1161,549 L 1161,547 L 1160,546 L 1160,545 L 1159,544 L 1159,542 L 1158,541 L 1158,539 L 1157,538 L 1157,536 L 1156,535 L 1156,533 L 1155,532 L 1155,530 L 1154,529 L 1154,526 L 1153,525 L 1153,522 L 1152,521 L 1152,518 L 1151,517 L 1151,513 L 1150,512 L 1150,507 L 1149,506 L 1149,499 L 1148,498 L 1148,476 L 1149,475 L 1149,469 L 1150,468 L 1150,465 L 1151,464 L 1151,463 L 1152,462 L 1152,461 L 1157,456 L 1158,456 L 1159,455 L 1160,455 L 1161,454 L 1165,454 L 1167,456 L 1168,456 L 1171,459 L 1171,460 L 1173,462 L 1173,463 L 1175,465 L 1175,466 L 1176,467 L 1176,469 L 1177,470 L 1177,471 L 1178,472 L 1178,474 L 1179,475 L 1179,478 L 1180,479 L 1180,481 L 1181,482 L 1181,486 L 1182,487 L 1182,492 L 1183,493 L 1183,498 L 1184,499 L 1184,504 L 1185,505 L 1185,507 L 1186,508 L 1186,510 L 1187,511 L 1187,512 L 1188,513 L 1188,514 L 1189,515 L 1189,516 L 1191,518 L 1191,519 L 1194,522 L 1195,522 L 1196,523 L 1201,523 L 1204,520 L 1204,518 L 1205,517 L 1205,510 L 1204,509 L 1204,431 L 1205,430 L 1205,377 L 1206,376 L 1206,351 L 1207,350 L 1207,347 L 1206,346 L 1207,345 L 1207,296 L 1208,295 L 1208,278 L 1209,277 L 1209,269 L 1210,268 L 1210,264 L 1211,263 L 1211,260 L 1212,259 L 1212,254 L 1213,253 L 1213,250 L 1214,249 L 1214,247 L 1215,246 L 1215,245 L 1216,244 L 1216,243 L 1218,241 L 1218,240 L 1219,239 L 1220,239 L 1222,237 L 1227,237 L 1228,238 L 1229,238 L 1233,242 L 1233,243 L 1235,245 L 1235,247 L 1236,248 L 1236,250 L 1237,251 L 1237,253 L 1238,254 L 1238,257 L 1239,258 L 1239,262 L 1240,263 L 1240,269 L 1241,270 L 1241,274 L 1242,275 L 1242,283 L 1243,284 L 1243,295 L 1244,296 L 1244,315 L 1245,316 L 1245,339 L 1246,340 L 1245,341 L 1246,342 L 1245,343 L 1246,344 L 1246,422 L 1245,423 L 1246,424 L 1246,439 L 1245,440 L 1245,455 L 1244,456 L 1244,464 L 1246,466 L 1248,466 L 1250,464 L 1250,453 L 1251,452 L 1251,413 L 1252,412 L 1252,380 L 1251,379 L 1251,374 L 1252,373 L 1252,372 L 1251,371 L 1251,370 L 1252,369 L 1252,351 L 1251,350 L 1252,349 L 1252,348 L 1251,347 L 1251,339 L 1252,338 L 1251,337 L 1251,306 L 1250,305 L 1250,288 L 1249,287 L 1249,274 L 1248,273 L 1248,266 L 1247,265 L 1247,260 L 1246,259 L 1246,255 L 1245,254 L 1245,250 L 1244,249 L 1244,247 L 1243,246 L 1243,244 L 1242,243 L 1242,242 L 1241,241 L 1241,240 L 1239,238 L 1239,237 L 1233,231 L 1232,231 L 1231,230 L 1230,230 L 1229,229 L 1227,229 L 1226,228" fill="none" stroke="black" stroke-width="2" /><path d="M 1314,214" fill="none" stroke="black" stroke-width="2" /></svg>